{
  "accessors": [
    {
      "bufferView": 2,
      "componentType": 5126,
      "count": 8058,
      "max": [
        0.09153489023447037,
        0.05462787300348282,
        0.025557545945048332
      ],
      "min": [
        -0.07860461622476578,
        -0.05048953741788864,
        -0.008379694074392319
      ],
      "type": "VEC3"
    },
    {
      "bufferView": 2,
      "byteOffset": 96696,
      "componentType": 5126,
      "count": 8058,
      "max": [
        1.0,
        1.0,
        1.0
      ],
      "min": [
        -1.0,
        -1.0,
        -1.0
      ],
      "type": "VEC3"
    },
    {
      "bufferView": 3,
      "componentType": 5126,
      "count": 8058,
      "max": [
        1.0,
        1.0,
        0.999999463558197,
        1.0
      ],
      "min": [
        -1.0,
        -1.0,
        -0.9999995827674866,
        -1.0
      ],
      "type": "VEC4"
    },
    {
      "bufferView": 1,
      "componentType": 5126,
      "count": 8058,
      "max": [
        0.9940628409385681,
        0.9570629596710205
      ],
      "min": [
        0.006043973844498396,
        0.005971607752144337
      ],
      "type": "VEC2"
    },
    {
      "bufferView": 1,
      "byteOffset": 64464,
      "componentType": 5126,
      "count": 8058,
      "max": [
        0.9940628409385681,
        0.9570629596710205
      ],
      "min": [
        0.006043973844498396,
        0.005971607752144337
      ],
      "type": "VEC2"
    },
    {
      "bufferView": 0,
      "componentType": 5125,
      "count": 43680,
      "type": "SCALAR"
    }
  ],
  "asset": {
    "extras": {
      "author": "Blarb (https://sketchfab.com/Blarb)",
      "license": "CC-BY-4.0 (http://creativecommons.org/licenses/by/4.0/)",
      "source": "https://sketchfab.com/3d-models/scifi-novel-1f8a6f18f19a487d81452ee59c1abbc3",
      "title": "Scifi Novel"
    },
    "generator": "Sketchfab-15.40.0",
    "version": "2.0"
  },
  "bufferViews": [
    {
      "buffer": 0,
      "byteLength": 174720,
      "name": "floatBufferViews",
      "target": 34963
    },
    {
      "buffer": 0,
      "byteLength": 128928,
      "byteOffset": 174720,
      "byteStride": 8,
      "name": "floatBufferViews",
      "target": 34962
    },
    {
      "buffer": 0,
      "byteLength": 193392,
      "byteOffset": 303648,
      "byteStride": 12,
      "name": "floatBufferViews",
      "target": 34962
    },
    {
      "buffer": 0,
      "byteLength": 128928,
      "byteOffset": 497040,
      "byteStride": 16,
      "name": "floatBufferViews",
      "target": 34962
    }
  ],
  "buffers": [
    {
      "byteLength": 625968,
      "uri": "scene.bin"
    }
  ],
  "images": [
    {
      "uri": "textures/scifi_novel_2k_baseColor.png"
    },
    {
      "uri": "textures/scifi_novel_2k_metallicRoughness.png"
    },
    {
      "uri": "textures/scifi_novel_2k_normal.png"
    }
  ],
  "materials": [
    {
      "doubleSided": true,
      "name": "scifi_novel_2k",
      "normalTexture": {
        "index": 2
      },
      "occlusionTexture": {
        "index": 1
      },
      "pbrMetallicRoughness": {
        "baseColorTexture": {
          "index": 0
        },
        "metallicFactor": 0.0,
        "metallicRoughnessTexture": {
          "index": 1
        }
      }
    }
  ],
  "meshes": [
    {
      "name": "scifi_novel_scifi_novel_2k_0",
      "primitives": [
        {
          "attributes": {
            "NORMAL": 1,
            "POSITION": 0,
            "TANGENT": 2,
            "TEXCOORD_0": 3,
            "TEXCOORD_1": 4
          },
          "indices": 5,
          "material": 0,
          "mode": 4
        }
      ]
    }
  ],
  "nodes": [
    {
      "children": [
        1
      ],
      "matrix": [
        1.0,
        0.0,
        0.0,
        0.0,
        0.0,
        2.220446049250313e-16,
        -1.0,
        0.0,
        0.0,
        1.0,
        2.220446049250313e-16,
        0.0,
        0.0,
        0.0,
        0.0,
        1.0
      ],
      "name": "Sketchfab_model"
    },
    {
      "children": [
        2
      ],
      "matrix": [
        0.009999999776482582,
        0.0,
        0.0,
        0.0,
        0.0,
        0.0,
        0.009999999776482582,
        0.0,
        0.0,
        -0.009999999776482582,
        0.0,
        0.0,
        0.0,
        0.0,
        0.0,
        1.0
      ],
      "name": "d1bbe0cde7d84b3b903848e800ae7b7f.fbx"
    },
    {
      "children": [
        3
      ],
      "name": "RootNode"
    },
    {
      "children": [
        4
      ],
      "matrix": [
        100.0,
        0.0,
        0.0,
        0.0,
        0.0,
        -1.629206793918314e-05,
        -99.99999999999868,
        0.0,
        0.0,
        99.99999999999868,
        -1.629206793918314e-05,
        0.0,
        0.0,
        0.8352212905883789,
        0.0,
        1.0
      ],
      "name": "scifi_novel"
    },
    {
      "mesh": 0,
      "name": "scifi_novel_scifi_novel_2k_0"
    }
  ],
  "samplers": [
    {
      "magFilter": 9729,
      "minFilter": 9987,
      "wrapS": 10497,
      "wrapT": 10497
    }
  ],
  "scene": 0,
  "scenes": [
    {
      "name": "Sketchfab_Scene",
      "nodes": [
        0
      ]
    }
  ],
  "textures": [
    {
      "sampler": 0,
      "source": 0
    },
    {
      "sampler": 0,
      "source": 1
    },
    {
      "sampler": 0,
      "source": 2
    }
  ]
}
