{
  "accessors": [
    {
      "bufferView": 2,
      "componentType": 5126,
      "count": 892,
      "max": [
        8.063329696655273,
        2.049830913543701,
        11.24949836730957
      ],
      "min": [
        -8.233014106750488,
        -0.021616101264953613,
        -11.984975814819336
      ],
      "type": "VEC3"
    },
    {
      "bufferView": 2,
      "byteOffset": 10704,
      "componentType": 5126,
      "count": 892,
      "max": [
        1.0,
        0.9999811053276062,
        0.9998727440834045
      ],
      "min": [
        -0.9970071911811829,
        -1.0,
        -1.0
      ],
      "type": "VEC3"
    },
    {
      "bufferView": 1,
      "componentType": 5126,
      "count": 892,
      "max": [
        0.8521369695663452,
        0.999500572681427
      ],
      "min": [
        0.0004258155822753906,
        0.000499531626701355
      ],
      "type": "VEC2"
    },
    {
      "bufferView": 1,
      "byteOffset": 7136,
      "componentType": 5126,
      "count": 892,
      "max": [
        0.8521369695663452,
        0.999500572681427
      ],
      "min": [
        0.0004258155822753906,
        0.000499531626701355
      ],
      "type": "VEC2"
    },
    {
      "bufferView": 0,
      "componentType": 5125,
      "count": 3474,
      "type": "SCALAR"
    }
  ],
  "asset": {
    "extras": {
      "author": "abdillaamy (https://sketchfab.com/abdillaamy)",
      "license": "CC-BY-4.0 (http://creativecommons.org/licenses/by/4.0/)",
      "source": "https://sketchfab.com/3d-models/folded-newspaper-4fc14ea5129b4ea3b34a22844a6f1b3f",
      "title": "Folded Newspaper"
    },
    "generator": "Sketchfab-12.66.0",
    "version": "2.0"
  },
  "bufferViews": [
    {
      "buffer": 0,
      "byteLength": 13896,
      "name": "floatBufferViews",
      "target": 34963
    },
    {
      "buffer": 0,
      "byteLength": 14272,
      "byteOffset": 13896,
      "byteStride": 8,
      "name": "floatBufferViews",
      "target": 34962
    },
    {
      "buffer": 0,
      "byteLength": 21408,
      "byteOffset": 28168,
      "byteStride": 12,
      "name": "floatBufferViews",
      "target": 34962
    }
  ],
  "buffers": [
    {
      "byteLength": 49576,
      "uri": "scene.bin"
    }
  ],
  "images": [
    {
      "uri": "textures/Newspaper_baseColor.jpeg"
    }
  ],
  "materials": [
    {
      "doubleSided": true,
      "name": "Newspaper",
      "pbrMetallicRoughness": {
        "baseColorTexture": {
          "index": 0
        },
        "metallicFactor": 0.0,
        "roughnessFactor": 0.8017045455
      }
    }
  ],
  "meshes": [
    {
      "name": "NewspaperFolded_Newspaper_0",
      "primitives": [
        {
          "attributes": {
            "NORMAL": 1,
            "POSITION": 0,
            "TEXCOORD_0": 2,
            "TEXCOORD_1": 3
          },
          "indices": 4,
          "material": 0,
          "mode": 4
        }
      ]
    }
  ],
  "nodes": [
    {
      "children": [
        1
      ],
      "matrix": [
        1.0,
        0.0,
        0.0,
        0.0,
        0.0,
        2.220446049250313e-16,
        -1.0,
        0.0,
        0.0,
        1.0,
        2.220446049250313e-16,
        0.0,
        0.0,
        0.0,
        0.0,
        1.0
      ],
      "name": "Sketchfab_model"
    },
    {
      "children": [
        2
      ],
      "matrix": [
        1.0,
        0.0,
        0.0,
        0.0,
        0.0,
        0.0,
        1.0,
        0.0,
        0.0,
        -1.0,
        0.0,
        0.0,
        0.0,
        0.0,
        0.0,
        1.0
      ],
      "name": "bd81465a84094d68b79f9d9d8cdf820b.fbx"
    },
    {
      "children": [
        3
      ],
      "name": "RootNode"
    },
    {
      "children": [
        4
      ],
      "name": "NewspaperFolded"
    },
    {
      "mesh": 0,
      "name": "NewspaperFolded_Newspaper_0"
    }
  ],
  "samplers": [
    {
      "magFilter": 9729,
      "minFilter": 9987,
      "wrapS": 10497,
      "wrapT": 10497
    }
  ],
  "scene": 0,
  "scenes": [
    {
      "name": "Sketchfab_Scene",
      "nodes": [
        0
      ]
    }
  ],
  "textures": [
    {
      "sampler": 0,
      "source": 0
    }
  ]
}
