{
  "accessors": [
    {
      "bufferView": 2,
      "componentType": 5126,
      "count": 50191,
      "max": [
        2.250926971435547,
        -1.9900540113449097,
        3.6259570121765137
      ],
      "min": [
        -3.1980929374694824,
        -3.4109690189361572,
        -1.9525179862976074
      ],
      "type": "VEC3"
    },
    {
      "bufferView": 2,
      "byteOffset": 602292,
      "componentType": 5126,
      "count": 50191,
      "max": [
        0.9999444484710693,
        0.9999978542327881,
        0.9989975690841675
      ],
      "min": [
        -0.9999565482139587,
        -0.9372108578681946,
        -0.9999863505363464
      ],
      "type": "VEC3"
    },
    {
      "bufferView": 1,
      "componentType": 5126,
      "count": 50191,
      "max": [
        0.9916110038757324,
        0.9918559789657593
      ],
      "min": [
        0.008138000033795834,
        0.008342999964952469
      ],
      "type": "VEC2"
    },
    {
      "bufferView": 0,
      "componentType": 5125,
      "count": 272742,
      "type": "SCALAR"
    },
    {
      "bufferView": 2,
      "byteOffset": 1204584,
      "componentType": 5126,
      "count": 43010,
      "max": [
        2.3803811073303223,
        -1.980502963066101,
        3.6259570121765137
      ],
      "min": [
        -3.1980929374694824,
        -3.4042599201202393,
        -1.9525179862976074
      ],
      "type": "VEC3"
    },
    {
      "bufferView": 2,
      "byteOffset": 1720704,
      "componentType": 5126,
      "count": 43010,
      "max": [
        0.9999444484710693,
        0.9999983310699463,
        0.9999793767929077
      ],
      "min": [
        -0.9999565482139587,
        -0.9997526407241821,
        -0.9998446702957153
      ],
      "type": "VEC3"
    },
    {
      "bufferView": 1,
      "byteOffset": 401528,
      "componentType": 5126,
      "count": 43010,
      "max": [
        0.9916819930076599,
        0.9919350147247314
      ],
      "min": [
        0.008061000145971775,
        0.009003999643027782
      ],
      "type": "VEC2"
    },
    {
      "bufferView": 0,
      "byteOffset": 1090968,
      "componentType": 5125,
      "count": 207240,
      "type": "SCALAR"
    }
  ],
  "asset": {
    "extras": {
      "author": "Terrie Simmons-Ehrhardt (https://sketchfab.com/terrielsimmons)",
      "license": "CC-BY-4.0 (http://creativecommons.org/licenses/by/4.0/)",
      "source": "https://sketchfab.com/3d-models/coffee-cake-e1f50366886d4c09b79a287e714291e6",
      "title": "Coffee Cake"
    },
    "generator": "Sketchfab-12.65.0",
    "version": "2.0"
  },
  "bufferViews": [
    {
      "buffer": 0,
      "byteLength": 1919928,
      "name": "floatBufferViews",
      "target": 34963
    },
    {
      "buffer": 0,
      "byteLength": 745608,
      "byteOffset": 1919928,
      "byteStride": 8,
      "name": "floatBufferViews",
      "target": 34962
    },
    {
      "buffer": 0,
      "byteLength": 2236824,
      "byteOffset": 2665536,
      "byteStride": 12,
      "name": "floatBufferViews",
      "target": 34962
    }
  ],
  "buffers": [
    {
      "byteLength": 4902360,
      "uri": "scene.bin"
    }
  ],
  "extensionsUsed": [
    "KHR_materials_unlit"
  ],
  "images": [
    {
      "uri": "textures/material0000_baseColor.jpeg"
    },
    {
      "uri": "textures/material0001_baseColor.jpeg"
    }
  ],
  "materials": [
    {
      "doubleSided": true,
      "extensions": {
        "KHR_materials_unlit": {}
      },
      "name": "material0000",
      "pbrMetallicRoughness": {
        "baseColorTexture": {
          "index": 0
        },
        "metallicFactor": 0.0
      }
    },
    {
      "doubleSided": true,
      "extensions": {
        "KHR_materials_unlit": {}
      },
      "name": "material0001",
      "pbrMetallicRoughness": {
        "baseColorTexture": {
          "index": 1
        },
        "metallicFactor": 0.0
      }
    }
  ],
  "meshes": [
    {
      "name": "Object_0",
      "primitives": [
        {
          "attributes": {
            "NORMAL": 1,
            "POSITION": 0,
            "TEXCOORD_0": 2
          },
          "indices": 3,
          "material": 0,
          "mode": 4
        }
      ]
    },
    {
      "name": "Object_1",
      "primitives": [
        {
          "attributes": {
            "NORMAL": 5,
            "POSITION": 4,
            "TEXCOORD_0": 6
          },
          "indices": 7,
          "material": 1,
          "mode": 4
        }
      ]
    }
  ],
  "nodes": [
    {
      "children": [
        1
      ],
      "matrix": [
        0.9934508204460144,
        0.11426044255495071,
        5.312649044130218e-17,
        0.0,
        -0.11335808783769608,
        0.9856051802635193,
        0.1254287362098696,
        0.0,
        0.014331542886793613,
        -0.12460727989673637,
        0.9921026229858398,
        0.0,
        -0.32025235891342163,
        3.6446323394775386,
        2.203754663467408,
        1.0
      ],
      "name": "Sketchfab_model"
    },
    {
      "children": [
        2,
        3
      ],
      "name": "model.obj.cleaner.materialmerger.gles"
    },
    {
      "mesh": 0,
      "name": "Object_2"
    },
    {
      "mesh": 1,
      "name": "Object_3"
    }
  ],
  "samplers": [
    {
      "magFilter": 9729,
      "minFilter": 9987,
      "wrapS": 10497,
      "wrapT": 10497
    }
  ],
  "scene": 0,
  "scenes": [
    {
      "name": "Sketchfab_Scene",
      "nodes": [
        0
      ]
    }
  ],
  "textures": [
    {
      "sampler": 0,
      "source": 0
    },
    {
      "sampler": 0,
      "source": 1
    }
  ]
}
