{
  "accessors": [
    {
      "bufferView": 2,
      "componentType": 5126,
      "count": 26865,
      "max": [
        0.06479696929454803,
        0.10782242566347122,
        0.0665958821773529
      ],
      "min": [
        -0.024836670607328415,
        -0.10256902873516083,
        -0.09140831977128983
      ],
      "type": "VEC3"
    },
    {
      "bufferView": 2,
      "byteOffset": 322380,
      "componentType": 5126,
      "count": 26865,
      "max": [
        0.9999983906745911,
        0.9999518394470215,
        0.9999398589134216
      ],
      "min": [
        -0.9999946355819702,
        -0.9991989731788635,
        -0.998211681842804
      ],
      "type": "VEC3"
    },
    {
      "bufferView": 1,
      "componentType": 5126,
      "count": 26865,
      "max": [
        0.9957207441329956,
        0.9999976754188538
      ],
      "min": [
        7.943038508528844e-05,
        2.101512836816255e-05
      ],
      "type": "VEC2"
    },
    {
      "bufferView": 1,
      "byteOffset": 214920,
      "componentType": 5126,
      "count": 26865,
      "max": [
        0.9957207441329956,
        0.9999976754188538
      ],
      "min": [
        7.943038508528844e-05,
        2.101512836816255e-05
      ],
      "type": "VEC2"
    },
    {
      "bufferView": 1,
      "byteOffset": 429840,
      "componentType": 5126,
      "count": 26865,
      "max": [
        0.9957207441329956,
        0.9999976754188538
      ],
      "min": [
        7.943038508528844e-05,
        2.101512836816255e-05
      ],
      "type": "VEC2"
    },
    {
      "bufferView": 0,
      "componentType": 5125,
      "count": 142113,
      "type": "SCALAR"
    }
  ],
  "asset": {
    "extras": {
      "author": "uttamg911 (https://sketchfab.com/uttamg911)",
      "license": "CC-BY-NC-SA-4.0 (http://creativecommons.org/licenses/by-nc-sa/4.0/)",
      "source": "https://sketchfab.com/3d-models/day-204-everyday-matcha-3d9249d0828c44a2848f36969ff76bff",
      "title": "Day 204: Everyday Matcha"
    },
    "generator": "Sketchfab-12.70.0",
    "version": "2.0"
  },
  "bufferViews": [
    {
      "buffer": 0,
      "byteLength": 568452,
      "name": "floatBufferViews",
      "target": 34963
    },
    {
      "buffer": 0,
      "byteLength": 644760,
      "byteOffset": 568452,
      "byteStride": 8,
      "name": "floatBufferViews",
      "target": 34962
    },
    {
      "buffer": 0,
      "byteLength": 644760,
      "byteOffset": 1213212,
      "byteStride": 12,
      "name": "floatBufferViews",
      "target": 34962
    }
  ],
  "buffers": [
    {
      "byteLength": 1857972,
      "uri": "scene.bin"
    }
  ],
  "extensionsUsed": [
    "KHR_materials_unlit"
  ],
  "images": [
    {
      "uri": "textures/material_0_baseColor.jpeg"
    }
  ],
  "materials": [
    {
      "extensions": {
        "KHR_materials_unlit": {}
      },
      "name": "material_0",
      "pbrMetallicRoughness": {
        "baseColorTexture": {
          "index": 0
        },
        "metallicFactor": 0.0
      }
    }
  ],
  "meshes": [
    {
      "name": "Object_0",
      "primitives": [
        {
          "attributes": {
            "NORMAL": 1,
            "POSITION": 0,
            "TEXCOORD_0": 2,
            "TEXCOORD_1": 3,
            "TEXCOORD_2": 4
          },
          "indices": 5,
          "material": 0,
          "mode": 4
        }
      ]
    }
  ],
  "nodes": [
    {
      "children": [
        1
      ],
      "matrix": [
        1.0,
        0.0,
        0.0,
        0.0,
        0.0,
        2.220446049250313e-16,
        -1.0,
        0.0,
        0.0,
        1.0,
        2.220446049250313e-16,
        0.0,
        0.0,
        0.0,
        0.0,
        1.0
      ],
      "name": "Sketchfab_model"
    },
    {
      "children": [
        2
      ],
      "name": "root"
    },
    {
      "children": [
        3
      ],
      "matrix": [
        1.0,
        0.0,
        0.0,
        0.0,
        0.0,
        2.220446049250313e-16,
        1.0,
        0.0,
        0.0,
        -1.0,
        2.220446049250313e-16,
        0.0,
        0.0,
        0.0,
        0.0,
        1.0
      ],
      "name": "GLTF_SceneRootNode"
    },
    {
      "children": [
        4
      ],
      "name": "_0"
    },
    {
      "mesh": 0,
      "name": "Object_4"
    }
  ],
  "samplers": [
    {
      "magFilter": 9729,
      "minFilter": 9987,
      "wrapS": 10497,
      "wrapT": 10497
    }
  ],
  "scene": 0,
  "scenes": [
    {
      "name": "Sketchfab_Scene",
      "nodes": [
        0
      ]
    }
  ],
  "textures": [
    {
      "sampler": 0,
      "source": 0
    }
  ]
}
