{
  "accessors": [
    {
      "bufferView": 2,
      "componentType": 5126,
      "count": 65532,
      "max": [
        0.059390000998973846,
        -0.058329999446868896,
        0.5729100108146667
      ],
      "min": [
        -0.16089999675750732,
        -0.21570999920368195,
        0.2720299959182739
      ],
      "type": "VEC3"
    },
    {
      "bufferView": 2,
      "byteOffset": 786384,
      "componentType": 5126,
      "count": 65532,
      "max": [
        0.9999637007713318,
        0.9999539256095886,
        1.0
      ],
      "min": [
        -0.9999999403953552,
        -0.9999721050262451,
        -0.9794204831123352
      ],
      "type": "VEC3"
    },
    {
      "bufferView": 1,
      "componentType": 5126,
      "count": 65532,
      "max": [
        0.9977570176124573,
        0.9915949702262878
      ],
      "min": [
        0.0021609999239444733,
        0.28142601251602173
      ],
      "type": "VEC2"
    },
    {
      "bufferView": 0,
      "componentType": 5125,
      "count": 341577,
      "type": "SCALAR"
    },
    {
      "bufferView": 2,
      "byteOffset": 1572768,
      "componentType": 5126,
      "count": 36185,
      "max": [
        0.059390000998973846,
        -0.058329999446868896,
        0.5717099905014038
      ],
      "min": [
        -0.1552100032567978,
        -0.21570999920368195,
        0.27094998955726624
      ],
      "type": "VEC3"
    },
    {
      "bufferView": 2,
      "byteOffset": 2006988,
      "componentType": 5126,
      "count": 36185,
      "max": [
        0.9999600648880005,
        0.9998994469642639,
        1.0
      ],
      "min": [
        -0.9999765753746033,
        -0.9999648928642273,
        -0.8384572267532349
      ],
      "type": "VEC3"
    },
    {
      "bufferView": 1,
      "byteOffset": 524256,
      "componentType": 5126,
      "count": 36185,
      "max": [
        0.9947270154953003,
        0.9915969967842102
      ],
      "min": [
        0.06338199973106384,
        0.5383780002593994
      ],
      "type": "VEC2"
    },
    {
      "bufferView": 0,
      "byteOffset": 1366308,
      "componentType": 5125,
      "count": 193932,
      "type": "SCALAR"
    }
  ],
  "asset": {
    "extras": {
      "author": "Kathryn Smith (https://sketchfab.com/kate.grace.smith)",
      "license": "CC-BY-NC-SA-4.0 (http://creativecommons.org/licenses/by-nc-sa/4.0/)",
      "source": "https://sketchfab.com/3d-models/ice-coffee-9809e2893c7d4e9ebfca2d884c5e019f",
      "title": "Ice Coffee!"
    },
    "generator": "Sketchfab-13.66.0",
    "version": "2.0"
  },
  "bufferViews": [
    {
      "buffer": 0,
      "byteLength": 2142036,
      "name": "floatBufferViews",
      "target": 34963
    },
    {
      "buffer": 0,
      "byteLength": 813736,
      "byteOffset": 2142036,
      "byteStride": 8,
      "name": "floatBufferViews",
      "target": 34962
    },
    {
      "buffer": 0,
      "byteLength": 2441208,
      "byteOffset": 2955772,
      "byteStride": 12,
      "name": "floatBufferViews",
      "target": 34962
    }
  ],
  "buffers": [
    {
      "byteLength": 5396980,
      "uri": "scene.bin"
    }
  ],
  "extensionsUsed": [
    "KHR_materials_unlit"
  ],
  "images": [
    {
      "uri": "textures/main_baseColor.jpeg"
    }
  ],
  "materials": [
    {
      "doubleSided": true,
      "extensions": {
        "KHR_materials_unlit": {}
      },
      "name": "main",
      "pbrMetallicRoughness": {
        "baseColorTexture": {
          "index": 0
        },
        "metallicFactor": 0.0
      }
    }
  ],
  "meshes": [
    {
      "name": "Object_0",
      "primitives": [
        {
          "attributes": {
            "NORMAL": 1,
            "POSITION": 0,
            "TEXCOORD_0": 2
          },
          "indices": 3,
          "material": 0,
          "mode": 4
        }
      ]
    },
    {
      "name": "Object_1",
      "primitives": [
        {
          "attributes": {
            "NORMAL": 5,
            "POSITION": 4,
            "TEXCOORD_0": 6
          },
          "indices": 7,
          "material": 0,
          "mode": 4
        }
      ]
    }
  ],
  "nodes": [
    {
      "children": [
        1
      ],
      "matrix": [
        1.0,
        0.0,
        0.0,
        0.0,
        0.0,
        2.220446049250313e-16,
        -1.0,
        0.0,
        0.0,
        1.0,
        2.220446049250313e-16,
        0.0,
        0.0,
        0.0,
        0.0,
        1.0
      ],
      "name": "Sketchfab_model"
    },
    {
      "children": [
        2,
        3
      ],
      "name": "Scaniverse.obj.cleaner.materialmerger.gles"
    },
    {
      "mesh": 0,
      "name": "Object_2"
    },
    {
      "mesh": 1,
      "name": "Object_3"
    }
  ],
  "samplers": [
    {
      "magFilter": 9729,
      "minFilter": 9987,
      "wrapS": 10497,
      "wrapT": 10497
    }
  ],
  "scene": 0,
  "scenes": [
    {
      "name": "Sketchfab_Scene",
      "nodes": [
        0
      ]
    }
  ],
  "textures": [
    {
      "sampler": 0,
      "source": 0
    }
  ]
}
